<?xml version="1.0" encoding="utf-8"?>
<!DOCTYPE svg PUBLIC "-//W3C//DTD SVG 1.1//EN" "http://www.w3.org/Graphics/SVG/1.1/DTD/svg11.dtd">
<svg version="1.1" id="Layer_1" xmlns="http://www.w3.org/2000/svg" xmlns:xlink="http://www.w3.org/1999/xlink" x="0px" y="0px"
width="1320px" height="1320px" viewBox="0 0 1320 1320" enable-background="new 0 0 1320 1320" xml:space="preserve">
<rect x="0" y="0" width="1320" height="1320" fill="rgb(255,255,255)" /><g transform="translate(80,80)"><g transform="translate(320,0) scale(0.4,0.4)"><g transform="" style="fill: rgb(2, 73, 127);">
<rect width="100" height="100"/>
</g></g><g transform="translate(440,0) scale(0.4,0.4)"><g transform="" style="fill: rgb(2, 73, 127);">
<rect width="100" height="100"/>
</g></g><g transform="translate(480,0) scale(0.4,0.4)"><g transform="" style="fill: rgb(2, 73, 127);">
<rect width="100" height="100"/>
</g></g><g transform="translate(600,0) scale(0.4,0.4)"><g transform="" style="fill: rgb(2, 73, 127);">
<rect width="100" height="100"/>
</g></g><g transform="translate(640,0) scale(0.4,0.4)"><g transform="" style="fill: rgb(2, 73, 127);">
<rect width="100" height="100"/>
</g></g><g transform="translate(680,0) scale(0.4,0.4)"><g transform="" style="fill: rgb(2, 73, 127);">
<rect width="100" height="100"/>
</g></g><g transform="translate(720,0) scale(0.4,0.4)"><g transform="" style="fill: rgb(2, 73, 127);">
<rect width="100" height="100"/>
</g></g><g transform="translate(760,0) scale(0.4,0.4)"><g transform="" style="fill: rgb(2, 73, 127);">
<rect width="100" height="100"/>
</g></g><g transform="translate(320,40) scale(0.4,0.4)"><g transform="" style="fill: rgb(2, 73, 127);">
<rect width="100" height="100"/>
</g></g><g transform="translate(360,40) scale(0.4,0.4)"><g transform="" style="fill: rgb(2, 73, 127);">
<rect width="100" height="100"/>
</g></g><g transform="translate(480,40) scale(0.4,0.4)"><g transform="" style="fill: rgb(2, 73, 127);">
<rect width="100" height="100"/>
</g></g><g transform="translate(560,40) scale(0.4,0.4)"><g transform="" style="fill: rgb(2, 73, 127);">
<rect width="100" height="100"/>
</g></g><g transform="translate(600,40) scale(0.4,0.4)"><g transform="" style="fill: rgb(2, 73, 127);">
<rect width="100" height="100"/>
</g></g><g transform="translate(720,40) scale(0.4,0.4)"><g transform="" style="fill: rgb(2, 73, 127);">
<rect width="100" height="100"/>
</g></g><g transform="translate(800,40) scale(0.4,0.4)"><g transform="" style="fill: rgb(2, 73, 127);">
<rect width="100" height="100"/>
</g></g><g transform="translate(360,80) scale(0.4,0.4)"><g transform="" style="fill: rgb(2, 73, 127);">
<rect width="100" height="100"/>
</g></g><g transform="translate(400,80) scale(0.4,0.4)"><g transform="" style="fill: rgb(2, 73, 127);">
<rect width="100" height="100"/>
</g></g><g transform="translate(440,80) scale(0.4,0.4)"><g transform="" style="fill: rgb(2, 73, 127);">
<rect width="100" height="100"/>
</g></g><g transform="translate(520,80) scale(0.4,0.4)"><g transform="" style="fill: rgb(2, 73, 127);">
<rect width="100" height="100"/>
</g></g><g transform="translate(560,80) scale(0.4,0.4)"><g transform="" style="fill: rgb(2, 73, 127);">
<rect width="100" height="100"/>
</g></g><g transform="translate(600,80) scale(0.4,0.4)"><g transform="" style="fill: rgb(2, 73, 127);">
<rect width="100" height="100"/>
</g></g><g transform="translate(760,80) scale(0.4,0.4)"><g transform="" style="fill: rgb(2, 73, 127);">
<rect width="100" height="100"/>
</g></g><g transform="translate(800,80) scale(0.4,0.4)"><g transform="" style="fill: rgb(2, 73, 127);">
<rect width="100" height="100"/>
</g></g><g transform="translate(320,120) scale(0.4,0.4)"><g transform="" style="fill: rgb(2, 73, 127);">
<rect width="100" height="100"/>
</g></g><g transform="translate(360,120) scale(0.4,0.4)"><g transform="" style="fill: rgb(2, 73, 127);">
<rect width="100" height="100"/>
</g></g><g transform="translate(640,120) scale(0.4,0.4)"><g transform="" style="fill: rgb(2, 73, 127);">
<rect width="100" height="100"/>
</g></g><g transform="translate(680,120) scale(0.4,0.4)"><g transform="" style="fill: rgb(2, 73, 127);">
<rect width="100" height="100"/>
</g></g><g transform="translate(360,160) scale(0.4,0.4)"><g transform="" style="fill: rgb(2, 73, 127);">
<rect width="100" height="100"/>
</g></g><g transform="translate(480,160) scale(0.4,0.4)"><g transform="" style="fill: rgb(2, 73, 127);">
<rect width="100" height="100"/>
</g></g><g transform="translate(520,160) scale(0.4,0.4)"><g transform="" style="fill: rgb(2, 73, 127);">
<rect width="100" height="100"/>
</g></g><g transform="translate(680,160) scale(0.4,0.4)"><g transform="" style="fill: rgb(2, 73, 127);">
<rect width="100" height="100"/>
</g></g><g transform="translate(760,160) scale(0.4,0.4)"><g transform="" style="fill: rgb(2, 73, 127);">
<rect width="100" height="100"/>
</g></g><g transform="translate(360,200) scale(0.4,0.4)"><g transform="" style="fill: rgb(2, 73, 127);">
<rect width="100" height="100"/>
</g></g><g transform="translate(480,200) scale(0.4,0.4)"><g transform="" style="fill: rgb(2, 73, 127);">
<rect width="100" height="100"/>
</g></g><g transform="translate(560,200) scale(0.4,0.4)"><g transform="" style="fill: rgb(2, 73, 127);">
<rect width="100" height="100"/>
</g></g><g transform="translate(680,200) scale(0.4,0.4)"><g transform="" style="fill: rgb(2, 73, 127);">
<rect width="100" height="100"/>
</g></g><g transform="translate(720,200) scale(0.4,0.4)"><g transform="" style="fill: rgb(2, 73, 127);">
<rect width="100" height="100"/>
</g></g><g transform="translate(760,200) scale(0.4,0.4)"><g transform="" style="fill: rgb(2, 73, 127);">
<rect width="100" height="100"/>
</g></g><g transform="translate(800,200) scale(0.4,0.4)"><g transform="" style="fill: rgb(2, 73, 127);">
<rect width="100" height="100"/>
</g></g><g transform="translate(320,240) scale(0.4,0.4)"><g transform="" style="fill: rgb(2, 73, 127);">
<rect width="100" height="100"/>
</g></g><g transform="translate(400,240) scale(0.4,0.4)"><g transform="" style="fill: rgb(2, 73, 127);">
<rect width="100" height="100"/>
</g></g><g transform="translate(480,240) scale(0.4,0.4)"><g transform="" style="fill: rgb(2, 73, 127);">
<rect width="100" height="100"/>
</g></g><g transform="translate(560,240) scale(0.4,0.4)"><g transform="" style="fill: rgb(2, 73, 127);">
<rect width="100" height="100"/>
</g></g><g transform="translate(640,240) scale(0.4,0.4)"><g transform="" style="fill: rgb(2, 73, 127);">
<rect width="100" height="100"/>
</g></g><g transform="translate(720,240) scale(0.4,0.4)"><g transform="" style="fill: rgb(2, 73, 127);">
<rect width="100" height="100"/>
</g></g><g transform="translate(800,240) scale(0.4,0.4)"><g transform="" style="fill: rgb(2, 73, 127);">
<rect width="100" height="100"/>
</g></g><g transform="translate(320,280) scale(0.4,0.4)"><g transform="" style="fill: rgb(2, 73, 127);">
<rect width="100" height="100"/>
</g></g><g transform="translate(360,280) scale(0.4,0.4)"><g transform="" style="fill: rgb(2, 73, 127);">
<rect width="100" height="100"/>
</g></g><g transform="translate(440,280) scale(0.4,0.4)"><g transform="" style="fill: rgb(2, 73, 127);">
<rect width="100" height="100"/>
</g></g><g transform="translate(520,280) scale(0.4,0.4)"><g transform="" style="fill: rgb(2, 73, 127);">
<rect width="100" height="100"/>
</g></g><g transform="translate(560,280) scale(0.4,0.4)"><g transform="" style="fill: rgb(2, 73, 127);">
<rect width="100" height="100"/>
</g></g><g transform="translate(680,280) scale(0.4,0.4)"><g transform="" style="fill: rgb(2, 73, 127);">
<rect width="100" height="100"/>
</g></g><g transform="translate(720,280) scale(0.4,0.4)"><g transform="" style="fill: rgb(2, 73, 127);">
<rect width="100" height="100"/>
</g></g><g transform="translate(0,320) scale(0.4,0.4)"><g transform="" style="fill: rgb(2, 73, 127);">
<rect width="100" height="100"/>
</g></g><g transform="translate(80,320) scale(0.4,0.4)"><g transform="" style="fill: rgb(2, 73, 127);">
<rect width="100" height="100"/>
</g></g><g transform="translate(120,320) scale(0.4,0.4)"><g transform="" style="fill: rgb(2, 73, 127);">
<rect width="100" height="100"/>
</g></g><g transform="translate(200,320) scale(0.4,0.4)"><g transform="" style="fill: rgb(2, 73, 127);">
<rect width="100" height="100"/>
</g></g><g transform="translate(240,320) scale(0.4,0.4)"><g transform="" style="fill: rgb(2, 73, 127);">
<rect width="100" height="100"/>
</g></g><g transform="translate(280,320) scale(0.4,0.4)"><g transform="" style="fill: rgb(2, 73, 127);">
<rect width="100" height="100"/>
</g></g><g transform="translate(360,320) scale(0.4,0.4)"><g transform="" style="fill: rgb(2, 73, 127);">
<rect width="100" height="100"/>
</g></g><g transform="translate(520,320) scale(0.4,0.4)"><g transform="" style="fill: rgb(2, 73, 127);">
<rect width="100" height="100"/>
</g></g><g transform="translate(560,320) scale(0.4,0.4)"><g transform="" style="fill: rgb(2, 73, 127);">
<rect width="100" height="100"/>
</g></g><g transform="translate(640,320) scale(0.4,0.4)"><g transform="" style="fill: rgb(2, 73, 127);">
<rect width="100" height="100"/>
</g></g><g transform="translate(680,320) scale(0.4,0.4)"><g transform="" style="fill: rgb(2, 73, 127);">
<rect width="100" height="100"/>
</g></g><g transform="translate(720,320) scale(0.4,0.4)"><g transform="" style="fill: rgb(2, 73, 127);">
<rect width="100" height="100"/>
</g></g><g transform="translate(760,320) scale(0.4,0.4)"><g transform="" style="fill: rgb(2, 73, 127);">
<rect width="100" height="100"/>
</g></g><g transform="translate(800,320) scale(0.4,0.4)"><g transform="" style="fill: rgb(2, 73, 127);">
<rect width="100" height="100"/>
</g></g><g transform="translate(880,320) scale(0.4,0.4)"><g transform="" style="fill: rgb(2, 73, 127);">
<rect width="100" height="100"/>
</g></g><g transform="translate(1000,320) scale(0.4,0.4)"><g transform="" style="fill: rgb(2, 73, 127);">
<rect width="100" height="100"/>
</g></g><g transform="translate(1080,320) scale(0.4,0.4)"><g transform="" style="fill: rgb(2, 73, 127);">
<rect width="100" height="100"/>
</g></g><g transform="translate(1120,320) scale(0.4,0.4)"><g transform="" style="fill: rgb(2, 73, 127);">
<rect width="100" height="100"/>
</g></g><g transform="translate(0,360) scale(0.4,0.4)"><g transform="" style="fill: rgb(2, 73, 127);">
<rect width="100" height="100"/>
</g></g><g transform="translate(40,360) scale(0.4,0.4)"><g transform="" style="fill: rgb(2, 73, 127);">
<rect width="100" height="100"/>
</g></g><g transform="translate(160,360) scale(0.4,0.4)"><g transform="" style="fill: rgb(2, 73, 127);">
<rect width="100" height="100"/>
</g></g><g transform="translate(360,360) scale(0.4,0.4)"><g transform="" style="fill: rgb(2, 73, 127);">
<rect width="100" height="100"/>
</g></g><g transform="translate(440,360) scale(0.4,0.4)"><g transform="" style="fill: rgb(2, 73, 127);">
<rect width="100" height="100"/>
</g></g><g transform="translate(480,360) scale(0.4,0.4)"><g transform="" style="fill: rgb(2, 73, 127);">
<rect width="100" height="100"/>
</g></g><g transform="translate(600,360) scale(0.4,0.4)"><g transform="" style="fill: rgb(2, 73, 127);">
<rect width="100" height="100"/>
</g></g><g transform="translate(640,360) scale(0.4,0.4)"><g transform="" style="fill: rgb(2, 73, 127);">
<rect width="100" height="100"/>
</g></g><g transform="translate(680,360) scale(0.4,0.4)"><g transform="" style="fill: rgb(2, 73, 127);">
<rect width="100" height="100"/>
</g></g><g transform="translate(720,360) scale(0.4,0.4)"><g transform="" style="fill: rgb(2, 73, 127);">
<rect width="100" height="100"/>
</g></g><g transform="translate(760,360) scale(0.4,0.4)"><g transform="" style="fill: rgb(2, 73, 127);">
<rect width="100" height="100"/>
</g></g><g transform="translate(800,360) scale(0.4,0.4)"><g transform="" style="fill: rgb(2, 73, 127);">
<rect width="100" height="100"/>
</g></g><g transform="translate(840,360) scale(0.4,0.4)"><g transform="" style="fill: rgb(2, 73, 127);">
<rect width="100" height="100"/>
</g></g><g transform="translate(880,360) scale(0.4,0.4)"><g transform="" style="fill: rgb(2, 73, 127);">
<rect width="100" height="100"/>
</g></g><g transform="translate(920,360) scale(0.4,0.4)"><g transform="" style="fill: rgb(2, 73, 127);">
<rect width="100" height="100"/>
</g></g><g transform="translate(960,360) scale(0.4,0.4)"><g transform="" style="fill: rgb(2, 73, 127);">
<rect width="100" height="100"/>
</g></g><g transform="translate(1120,360) scale(0.4,0.4)"><g transform="" style="fill: rgb(2, 73, 127);">
<rect width="100" height="100"/>
</g></g><g transform="translate(0,400) scale(0.4,0.4)"><g transform="" style="fill: rgb(2, 73, 127);">
<rect width="100" height="100"/>
</g></g><g transform="translate(80,400) scale(0.4,0.4)"><g transform="" style="fill: rgb(2, 73, 127);">
<rect width="100" height="100"/>
</g></g><g transform="translate(240,400) scale(0.4,0.4)"><g transform="" style="fill: rgb(2, 73, 127);">
<rect width="100" height="100"/>
</g></g><g transform="translate(400,400) scale(0.4,0.4)"><g transform="" style="fill: rgb(2, 73, 127);">
<rect width="100" height="100"/>
</g></g><g transform="translate(440,400) scale(0.4,0.4)"><g transform="" style="fill: rgb(2, 73, 127);">
<rect width="100" height="100"/>
</g></g><g transform="translate(480,400) scale(0.4,0.4)"><g transform="" style="fill: rgb(2, 73, 127);">
<rect width="100" height="100"/>
</g></g><g transform="translate(560,400) scale(0.4,0.4)"><g transform="" style="fill: rgb(2, 73, 127);">
<rect width="100" height="100"/>
</g></g><g transform="translate(600,400) scale(0.4,0.4)"><g transform="" style="fill: rgb(2, 73, 127);">
<rect width="100" height="100"/>
</g></g><g transform="translate(680,400) scale(0.4,0.4)"><g transform="" style="fill: rgb(2, 73, 127);">
<rect width="100" height="100"/>
</g></g><g transform="translate(840,400) scale(0.4,0.4)"><g transform="" style="fill: rgb(2, 73, 127);">
<rect width="100" height="100"/>
</g></g><g transform="translate(1040,400) scale(0.4,0.4)"><g transform="" style="fill: rgb(2, 73, 127);">
<rect width="100" height="100"/>
</g></g><g transform="translate(1080,400) scale(0.4,0.4)"><g transform="" style="fill: rgb(2, 73, 127);">
<rect width="100" height="100"/>
</g></g><g transform="translate(0,440) scale(0.4,0.4)"><g transform="" style="fill: rgb(2, 73, 127);">
<rect width="100" height="100"/>
</g></g><g transform="translate(120,440) scale(0.4,0.4)"><g transform="" style="fill: rgb(2, 73, 127);">
<rect width="100" height="100"/>
</g></g><g transform="translate(200,440) scale(0.4,0.4)"><g transform="" style="fill: rgb(2, 73, 127);">
<rect width="100" height="100"/>
</g></g><g transform="translate(280,440) scale(0.4,0.4)"><g transform="" style="fill: rgb(2, 73, 127);">
<rect width="100" height="100"/>
</g></g><g transform="translate(360,440) scale(0.4,0.4)"><g transform="" style="fill: rgb(2, 73, 127);">
<rect width="100" height="100"/>
</g></g><g transform="translate(400,440) scale(0.4,0.4)"><g transform="" style="fill: rgb(2, 73, 127);">
<rect width="100" height="100"/>
</g></g><g transform="translate(520,440) scale(0.4,0.4)"><g transform="" style="fill: rgb(2, 73, 127);">
<rect width="100" height="100"/>
</g></g><g transform="translate(560,440) scale(0.4,0.4)"><g transform="" style="fill: rgb(2, 73, 127);">
<rect width="100" height="100"/>
</g></g><g transform="translate(600,440) scale(0.4,0.4)"><g transform="" style="fill: rgb(2, 73, 127);">
<rect width="100" height="100"/>
</g></g><g transform="translate(720,440) scale(0.4,0.4)"><g transform="" style="fill: rgb(2, 73, 127);">
<rect width="100" height="100"/>
</g></g><g transform="translate(760,440) scale(0.4,0.4)"><g transform="" style="fill: rgb(2, 73, 127);">
<rect width="100" height="100"/>
</g></g><g transform="translate(840,440) scale(0.4,0.4)"><g transform="" style="fill: rgb(2, 73, 127);">
<rect width="100" height="100"/>
</g></g><g transform="translate(880,440) scale(0.4,0.4)"><g transform="" style="fill: rgb(2, 73, 127);">
<rect width="100" height="100"/>
</g></g><g transform="translate(960,440) scale(0.4,0.4)"><g transform="" style="fill: rgb(2, 73, 127);">
<rect width="100" height="100"/>
</g></g><g transform="translate(1120,440) scale(0.4,0.4)"><g transform="" style="fill: rgb(2, 73, 127);">
<rect width="100" height="100"/>
</g></g><g transform="translate(160,480) scale(0.4,0.4)"><g transform="" style="fill: rgb(2, 73, 127);">
<rect width="100" height="100"/>
</g></g><g transform="translate(240,480) scale(0.4,0.4)"><g transform="" style="fill: rgb(2, 73, 127);">
<rect width="100" height="100"/>
</g></g><g transform="translate(320,480) scale(0.4,0.4)"><g transform="" style="fill: rgb(2, 73, 127);">
<rect width="100" height="100"/>
</g></g><g transform="translate(360,480) scale(0.4,0.4)"><g transform="" style="fill: rgb(2, 73, 127);">
<rect width="100" height="100"/>
</g></g><g transform="translate(400,480) scale(0.4,0.4)"><g transform="" style="fill: rgb(2, 73, 127);">
<rect width="100" height="100"/>
</g></g><g transform="translate(680,480) scale(0.4,0.4)"><g transform="" style="fill: rgb(2, 73, 127);">
<rect width="100" height="100"/>
</g></g><g transform="translate(1000,480) scale(0.4,0.4)"><g transform="" style="fill: rgb(2, 73, 127);">
<rect width="100" height="100"/>
</g></g><g transform="translate(1040,480) scale(0.4,0.4)"><g transform="" style="fill: rgb(2, 73, 127);">
<rect width="100" height="100"/>
</g></g><g transform="translate(0,520) scale(0.4,0.4)"><g transform="" style="fill: rgb(2, 73, 127);">
<rect width="100" height="100"/>
</g></g><g transform="translate(80,520) scale(0.4,0.4)"><g transform="" style="fill: rgb(2, 73, 127);">
<rect width="100" height="100"/>
</g></g><g transform="translate(120,520) scale(0.4,0.4)"><g transform="" style="fill: rgb(2, 73, 127);">
<rect width="100" height="100"/>
</g></g><g transform="translate(360,520) scale(0.4,0.4)"><g transform="" style="fill: rgb(2, 73, 127);">
<rect width="100" height="100"/>
</g></g><g transform="translate(400,520) scale(0.4,0.4)"><g transform="" style="fill: rgb(2, 73, 127);">
<rect width="100" height="100"/>
</g></g><g transform="translate(480,520) scale(0.4,0.4)"><g transform="" style="fill: rgb(2, 73, 127);">
<rect width="100" height="100"/>
</g></g><g transform="translate(520,520) scale(0.4,0.4)"><g transform="" style="fill: rgb(2, 73, 127);">
<rect width="100" height="100"/>
</g></g><g transform="translate(680,520) scale(0.4,0.4)"><g transform="" style="fill: rgb(2, 73, 127);">
<rect width="100" height="100"/>
</g></g><g transform="translate(720,520) scale(0.4,0.4)"><g transform="" style="fill: rgb(2, 73, 127);">
<rect width="100" height="100"/>
</g></g><g transform="translate(760,520) scale(0.4,0.4)"><g transform="" style="fill: rgb(2, 73, 127);">
<rect width="100" height="100"/>
</g></g><g transform="translate(880,520) scale(0.4,0.4)"><g transform="" style="fill: rgb(2, 73, 127);">
<rect width="100" height="100"/>
</g></g><g transform="translate(1040,520) scale(0.4,0.4)"><g transform="" style="fill: rgb(2, 73, 127);">
<rect width="100" height="100"/>
</g></g><g transform="translate(1080,520) scale(0.4,0.4)"><g transform="" style="fill: rgb(2, 73, 127);">
<rect width="100" height="100"/>
</g></g><g transform="translate(1120,520) scale(0.4,0.4)"><g transform="" style="fill: rgb(2, 73, 127);">
<rect width="100" height="100"/>
</g></g><g transform="translate(0,560) scale(0.4,0.4)"><g transform="" style="fill: rgb(2, 73, 127);">
<rect width="100" height="100"/>
</g></g><g transform="translate(40,560) scale(0.4,0.4)"><g transform="" style="fill: rgb(2, 73, 127);">
<rect width="100" height="100"/>
</g></g><g transform="translate(80,560) scale(0.4,0.4)"><g transform="" style="fill: rgb(2, 73, 127);">
<rect width="100" height="100"/>
</g></g><g transform="translate(120,560) scale(0.4,0.4)"><g transform="" style="fill: rgb(2, 73, 127);">
<rect width="100" height="100"/>
</g></g><g transform="translate(240,560) scale(0.4,0.4)"><g transform="" style="fill: rgb(2, 73, 127);">
<rect width="100" height="100"/>
</g></g><g transform="translate(280,560) scale(0.4,0.4)"><g transform="" style="fill: rgb(2, 73, 127);">
<rect width="100" height="100"/>
</g></g><g transform="translate(360,560) scale(0.4,0.4)"><g transform="" style="fill: rgb(2, 73, 127);">
<rect width="100" height="100"/>
</g></g><g transform="translate(440,560) scale(0.4,0.4)"><g transform="" style="fill: rgb(2, 73, 127);">
<rect width="100" height="100"/>
</g></g><g transform="translate(560,560) scale(0.4,0.4)"><g transform="" style="fill: rgb(2, 73, 127);">
<rect width="100" height="100"/>
</g></g><g transform="translate(720,560) scale(0.4,0.4)"><g transform="" style="fill: rgb(2, 73, 127);">
<rect width="100" height="100"/>
</g></g><g transform="translate(760,560) scale(0.4,0.4)"><g transform="" style="fill: rgb(2, 73, 127);">
<rect width="100" height="100"/>
</g></g><g transform="translate(840,560) scale(0.4,0.4)"><g transform="" style="fill: rgb(2, 73, 127);">
<rect width="100" height="100"/>
</g></g><g transform="translate(1040,560) scale(0.4,0.4)"><g transform="" style="fill: rgb(2, 73, 127);">
<rect width="100" height="100"/>
</g></g><g transform="translate(1080,560) scale(0.4,0.4)"><g transform="" style="fill: rgb(2, 73, 127);">
<rect width="100" height="100"/>
</g></g><g transform="translate(1120,560) scale(0.4,0.4)"><g transform="" style="fill: rgb(2, 73, 127);">
<rect width="100" height="100"/>
</g></g><g transform="translate(0,600) scale(0.4,0.4)"><g transform="" style="fill: rgb(2, 73, 127);">
<rect width="100" height="100"/>
</g></g><g transform="translate(80,600) scale(0.4,0.4)"><g transform="" style="fill: rgb(2, 73, 127);">
<rect width="100" height="100"/>
</g></g><g transform="translate(160,600) scale(0.4,0.4)"><g transform="" style="fill: rgb(2, 73, 127);">
<rect width="100" height="100"/>
</g></g><g transform="translate(200,600) scale(0.4,0.4)"><g transform="" style="fill: rgb(2, 73, 127);">
<rect width="100" height="100"/>
</g></g><g transform="translate(440,600) scale(0.4,0.4)"><g transform="" style="fill: rgb(2, 73, 127);">
<rect width="100" height="100"/>
</g></g><g transform="translate(520,600) scale(0.4,0.4)"><g transform="" style="fill: rgb(2, 73, 127);">
<rect width="100" height="100"/>
</g></g><g transform="translate(640,600) scale(0.4,0.4)"><g transform="" style="fill: rgb(2, 73, 127);">
<rect width="100" height="100"/>
</g></g><g transform="translate(720,600) scale(0.4,0.4)"><g transform="" style="fill: rgb(2, 73, 127);">
<rect width="100" height="100"/>
</g></g><g transform="translate(760,600) scale(0.4,0.4)"><g transform="" style="fill: rgb(2, 73, 127);">
<rect width="100" height="100"/>
</g></g><g transform="translate(840,600) scale(0.4,0.4)"><g transform="" style="fill: rgb(2, 73, 127);">
<rect width="100" height="100"/>
</g></g><g transform="translate(880,600) scale(0.4,0.4)"><g transform="" style="fill: rgb(2, 73, 127);">
<rect width="100" height="100"/>
</g></g><g transform="translate(920,600) scale(0.4,0.4)"><g transform="" style="fill: rgb(2, 73, 127);">
<rect width="100" height="100"/>
</g></g><g transform="translate(1080,600) scale(0.4,0.4)"><g transform="" style="fill: rgb(2, 73, 127);">
<rect width="100" height="100"/>
</g></g><g transform="translate(40,640) scale(0.4,0.4)"><g transform="" style="fill: rgb(2, 73, 127);">
<rect width="100" height="100"/>
</g></g><g transform="translate(80,640) scale(0.4,0.4)"><g transform="" style="fill: rgb(2, 73, 127);">
<rect width="100" height="100"/>
</g></g><g transform="translate(160,640) scale(0.4,0.4)"><g transform="" style="fill: rgb(2, 73, 127);">
<rect width="100" height="100"/>
</g></g><g transform="translate(200,640) scale(0.4,0.4)"><g transform="" style="fill: rgb(2, 73, 127);">
<rect width="100" height="100"/>
</g></g><g transform="translate(240,640) scale(0.4,0.4)"><g transform="" style="fill: rgb(2, 73, 127);">
<rect width="100" height="100"/>
</g></g><g transform="translate(280,640) scale(0.4,0.4)"><g transform="" style="fill: rgb(2, 73, 127);">
<rect width="100" height="100"/>
</g></g><g transform="translate(360,640) scale(0.4,0.4)"><g transform="" style="fill: rgb(2, 73, 127);">
<rect width="100" height="100"/>
</g></g><g transform="translate(600,640) scale(0.4,0.4)"><g transform="" style="fill: rgb(2, 73, 127);">
<rect width="100" height="100"/>
</g></g><g transform="translate(720,640) scale(0.4,0.4)"><g transform="" style="fill: rgb(2, 73, 127);">
<rect width="100" height="100"/>
</g></g><g transform="translate(800,640) scale(0.4,0.4)"><g transform="" style="fill: rgb(2, 73, 127);">
<rect width="100" height="100"/>
</g></g><g transform="translate(840,640) scale(0.4,0.4)"><g transform="" style="fill: rgb(2, 73, 127);">
<rect width="100" height="100"/>
</g></g><g transform="translate(920,640) scale(0.4,0.4)"><g transform="" style="fill: rgb(2, 73, 127);">
<rect width="100" height="100"/>
</g></g><g transform="translate(960,640) scale(0.4,0.4)"><g transform="" style="fill: rgb(2, 73, 127);">
<rect width="100" height="100"/>
</g></g><g transform="translate(1000,640) scale(0.4,0.4)"><g transform="" style="fill: rgb(2, 73, 127);">
<rect width="100" height="100"/>
</g></g><g transform="translate(1080,640) scale(0.4,0.4)"><g transform="" style="fill: rgb(2, 73, 127);">
<rect width="100" height="100"/>
</g></g><g transform="translate(160,680) scale(0.4,0.4)"><g transform="" style="fill: rgb(2, 73, 127);">
<rect width="100" height="100"/>
</g></g><g transform="translate(280,680) scale(0.4,0.4)"><g transform="" style="fill: rgb(2, 73, 127);">
<rect width="100" height="100"/>
</g></g><g transform="translate(320,680) scale(0.4,0.4)"><g transform="" style="fill: rgb(2, 73, 127);">
<rect width="100" height="100"/>
</g></g><g transform="translate(400,680) scale(0.4,0.4)"><g transform="" style="fill: rgb(2, 73, 127);">
<rect width="100" height="100"/>
</g></g><g transform="translate(480,680) scale(0.4,0.4)"><g transform="" style="fill: rgb(2, 73, 127);">
<rect width="100" height="100"/>
</g></g><g transform="translate(520,680) scale(0.4,0.4)"><g transform="" style="fill: rgb(2, 73, 127);">
<rect width="100" height="100"/>
</g></g><g transform="translate(600,680) scale(0.4,0.4)"><g transform="" style="fill: rgb(2, 73, 127);">
<rect width="100" height="100"/>
</g></g><g transform="translate(640,680) scale(0.4,0.4)"><g transform="" style="fill: rgb(2, 73, 127);">
<rect width="100" height="100"/>
</g></g><g transform="translate(680,680) scale(0.4,0.4)"><g transform="" style="fill: rgb(2, 73, 127);">
<rect width="100" height="100"/>
</g></g><g transform="translate(800,680) scale(0.4,0.4)"><g transform="" style="fill: rgb(2, 73, 127);">
<rect width="100" height="100"/>
</g></g><g transform="translate(920,680) scale(0.4,0.4)"><g transform="" style="fill: rgb(2, 73, 127);">
<rect width="100" height="100"/>
</g></g><g transform="translate(1000,680) scale(0.4,0.4)"><g transform="" style="fill: rgb(2, 73, 127);">
<rect width="100" height="100"/>
</g></g><g transform="translate(1040,680) scale(0.4,0.4)"><g transform="" style="fill: rgb(2, 73, 127);">
<rect width="100" height="100"/>
</g></g><g transform="translate(1080,680) scale(0.4,0.4)"><g transform="" style="fill: rgb(2, 73, 127);">
<rect width="100" height="100"/>
</g></g><g transform="translate(0,720) scale(0.4,0.4)"><g transform="" style="fill: rgb(2, 73, 127);">
<rect width="100" height="100"/>
</g></g><g transform="translate(120,720) scale(0.4,0.4)"><g transform="" style="fill: rgb(2, 73, 127);">
<rect width="100" height="100"/>
</g></g><g transform="translate(160,720) scale(0.4,0.4)"><g transform="" style="fill: rgb(2, 73, 127);">
<rect width="100" height="100"/>
</g></g><g transform="translate(240,720) scale(0.4,0.4)"><g transform="" style="fill: rgb(2, 73, 127);">
<rect width="100" height="100"/>
</g></g><g transform="translate(320,720) scale(0.4,0.4)"><g transform="" style="fill: rgb(2, 73, 127);">
<rect width="100" height="100"/>
</g></g><g transform="translate(360,720) scale(0.4,0.4)"><g transform="" style="fill: rgb(2, 73, 127);">
<rect width="100" height="100"/>
</g></g><g transform="translate(400,720) scale(0.4,0.4)"><g transform="" style="fill: rgb(2, 73, 127);">
<rect width="100" height="100"/>
</g></g><g transform="translate(480,720) scale(0.4,0.4)"><g transform="" style="fill: rgb(2, 73, 127);">
<rect width="100" height="100"/>
</g></g><g transform="translate(600,720) scale(0.4,0.4)"><g transform="" style="fill: rgb(2, 73, 127);">
<rect width="100" height="100"/>
</g></g><g transform="translate(640,720) scale(0.4,0.4)"><g transform="" style="fill: rgb(2, 73, 127);">
<rect width="100" height="100"/>
</g></g><g transform="translate(720,720) scale(0.4,0.4)"><g transform="" style="fill: rgb(2, 73, 127);">
<rect width="100" height="100"/>
</g></g><g transform="translate(920,720) scale(0.4,0.4)"><g transform="" style="fill: rgb(2, 73, 127);">
<rect width="100" height="100"/>
</g></g><g transform="translate(960,720) scale(0.4,0.4)"><g transform="" style="fill: rgb(2, 73, 127);">
<rect width="100" height="100"/>
</g></g><g transform="translate(1040,720) scale(0.4,0.4)"><g transform="" style="fill: rgb(2, 73, 127);">
<rect width="100" height="100"/>
</g></g><g transform="translate(80,760) scale(0.4,0.4)"><g transform="" style="fill: rgb(2, 73, 127);">
<rect width="100" height="100"/>
</g></g><g transform="translate(120,760) scale(0.4,0.4)"><g transform="" style="fill: rgb(2, 73, 127);">
<rect width="100" height="100"/>
</g></g><g transform="translate(160,760) scale(0.4,0.4)"><g transform="" style="fill: rgb(2, 73, 127);">
<rect width="100" height="100"/>
</g></g><g transform="translate(200,760) scale(0.4,0.4)"><g transform="" style="fill: rgb(2, 73, 127);">
<rect width="100" height="100"/>
</g></g><g transform="translate(280,760) scale(0.4,0.4)"><g transform="" style="fill: rgb(2, 73, 127);">
<rect width="100" height="100"/>
</g></g><g transform="translate(320,760) scale(0.4,0.4)"><g transform="" style="fill: rgb(2, 73, 127);">
<rect width="100" height="100"/>
</g></g><g transform="translate(360,760) scale(0.4,0.4)"><g transform="" style="fill: rgb(2, 73, 127);">
<rect width="100" height="100"/>
</g></g><g transform="translate(400,760) scale(0.4,0.4)"><g transform="" style="fill: rgb(2, 73, 127);">
<rect width="100" height="100"/>
</g></g><g transform="translate(440,760) scale(0.4,0.4)"><g transform="" style="fill: rgb(2, 73, 127);">
<rect width="100" height="100"/>
</g></g><g transform="translate(600,760) scale(0.4,0.4)"><g transform="" style="fill: rgb(2, 73, 127);">
<rect width="100" height="100"/>
</g></g><g transform="translate(640,760) scale(0.4,0.4)"><g transform="" style="fill: rgb(2, 73, 127);">
<rect width="100" height="100"/>
</g></g><g transform="translate(680,760) scale(0.4,0.4)"><g transform="" style="fill: rgb(2, 73, 127);">
<rect width="100" height="100"/>
</g></g><g transform="translate(840,760) scale(0.4,0.4)"><g transform="" style="fill: rgb(2, 73, 127);">
<rect width="100" height="100"/>
</g></g><g transform="translate(880,760) scale(0.4,0.4)"><g transform="" style="fill: rgb(2, 73, 127);">
<rect width="100" height="100"/>
</g></g><g transform="translate(1040,760) scale(0.4,0.4)"><g transform="" style="fill: rgb(2, 73, 127);">
<rect width="100" height="100"/>
</g></g><g transform="translate(40,800) scale(0.4,0.4)"><g transform="" style="fill: rgb(2, 73, 127);">
<rect width="100" height="100"/>
</g></g><g transform="translate(80,800) scale(0.4,0.4)"><g transform="" style="fill: rgb(2, 73, 127);">
<rect width="100" height="100"/>
</g></g><g transform="translate(120,800) scale(0.4,0.4)"><g transform="" style="fill: rgb(2, 73, 127);">
<rect width="100" height="100"/>
</g></g><g transform="translate(160,800) scale(0.4,0.4)"><g transform="" style="fill: rgb(2, 73, 127);">
<rect width="100" height="100"/>
</g></g><g transform="translate(200,800) scale(0.4,0.4)"><g transform="" style="fill: rgb(2, 73, 127);">
<rect width="100" height="100"/>
</g></g><g transform="translate(240,800) scale(0.4,0.4)"><g transform="" style="fill: rgb(2, 73, 127);">
<rect width="100" height="100"/>
</g></g><g transform="translate(280,800) scale(0.4,0.4)"><g transform="" style="fill: rgb(2, 73, 127);">
<rect width="100" height="100"/>
</g></g><g transform="translate(320,800) scale(0.4,0.4)"><g transform="" style="fill: rgb(2, 73, 127);">
<rect width="100" height="100"/>
</g></g><g transform="translate(520,800) scale(0.4,0.4)"><g transform="" style="fill: rgb(2, 73, 127);">
<rect width="100" height="100"/>
</g></g><g transform="translate(600,800) scale(0.4,0.4)"><g transform="" style="fill: rgb(2, 73, 127);">
<rect width="100" height="100"/>
</g></g><g transform="translate(640,800) scale(0.4,0.4)"><g transform="" style="fill: rgb(2, 73, 127);">
<rect width="100" height="100"/>
</g></g><g transform="translate(680,800) scale(0.4,0.4)"><g transform="" style="fill: rgb(2, 73, 127);">
<rect width="100" height="100"/>
</g></g><g transform="translate(720,800) scale(0.4,0.4)"><g transform="" style="fill: rgb(2, 73, 127);">
<rect width="100" height="100"/>
</g></g><g transform="translate(800,800) scale(0.4,0.4)"><g transform="" style="fill: rgb(2, 73, 127);">
<rect width="100" height="100"/>
</g></g><g transform="translate(840,800) scale(0.4,0.4)"><g transform="" style="fill: rgb(2, 73, 127);">
<rect width="100" height="100"/>
</g></g><g transform="translate(880,800) scale(0.4,0.4)"><g transform="" style="fill: rgb(2, 73, 127);">
<rect width="100" height="100"/>
</g></g><g transform="translate(920,800) scale(0.4,0.4)"><g transform="" style="fill: rgb(2, 73, 127);">
<rect width="100" height="100"/>
</g></g><g transform="translate(960,800) scale(0.4,0.4)"><g transform="" style="fill: rgb(2, 73, 127);">
<rect width="100" height="100"/>
</g></g><g transform="translate(1000,800) scale(0.4,0.4)"><g transform="" style="fill: rgb(2, 73, 127);">
<rect width="100" height="100"/>
</g></g><g transform="translate(1040,800) scale(0.4,0.4)"><g transform="" style="fill: rgb(2, 73, 127);">
<rect width="100" height="100"/>
</g></g><g transform="translate(320,840) scale(0.4,0.4)"><g transform="" style="fill: rgb(2, 73, 127);">
<rect width="100" height="100"/>
</g></g><g transform="translate(400,840) scale(0.4,0.4)"><g transform="" style="fill: rgb(2, 73, 127);">
<rect width="100" height="100"/>
</g></g><g transform="translate(520,840) scale(0.4,0.4)"><g transform="" style="fill: rgb(2, 73, 127);">
<rect width="100" height="100"/>
</g></g><g transform="translate(560,840) scale(0.4,0.4)"><g transform="" style="fill: rgb(2, 73, 127);">
<rect width="100" height="100"/>
</g></g><g transform="translate(640,840) scale(0.4,0.4)"><g transform="" style="fill: rgb(2, 73, 127);">
<rect width="100" height="100"/>
</g></g><g transform="translate(800,840) scale(0.4,0.4)"><g transform="" style="fill: rgb(2, 73, 127);">
<rect width="100" height="100"/>
</g></g><g transform="translate(960,840) scale(0.4,0.4)"><g transform="" style="fill: rgb(2, 73, 127);">
<rect width="100" height="100"/>
</g></g><g transform="translate(1000,840) scale(0.4,0.4)"><g transform="" style="fill: rgb(2, 73, 127);">
<rect width="100" height="100"/>
</g></g><g transform="translate(1040,840) scale(0.4,0.4)"><g transform="" style="fill: rgb(2, 73, 127);">
<rect width="100" height="100"/>
</g></g><g transform="translate(1080,840) scale(0.4,0.4)"><g transform="" style="fill: rgb(2, 73, 127);">
<rect width="100" height="100"/>
</g></g><g transform="translate(1120,840) scale(0.4,0.4)"><g transform="" style="fill: rgb(2, 73, 127);">
<rect width="100" height="100"/>
</g></g><g transform="translate(320,880) scale(0.4,0.4)"><g transform="" style="fill: rgb(2, 73, 127);">
<rect width="100" height="100"/>
</g></g><g transform="translate(360,880) scale(0.4,0.4)"><g transform="" style="fill: rgb(2, 73, 127);">
<rect width="100" height="100"/>
</g></g><g transform="translate(440,880) scale(0.4,0.4)"><g transform="" style="fill: rgb(2, 73, 127);">
<rect width="100" height="100"/>
</g></g><g transform="translate(480,880) scale(0.4,0.4)"><g transform="" style="fill: rgb(2, 73, 127);">
<rect width="100" height="100"/>
</g></g><g transform="translate(520,880) scale(0.4,0.4)"><g transform="" style="fill: rgb(2, 73, 127);">
<rect width="100" height="100"/>
</g></g><g transform="translate(640,880) scale(0.4,0.4)"><g transform="" style="fill: rgb(2, 73, 127);">
<rect width="100" height="100"/>
</g></g><g transform="translate(680,880) scale(0.4,0.4)"><g transform="" style="fill: rgb(2, 73, 127);">
<rect width="100" height="100"/>
</g></g><g transform="translate(720,880) scale(0.4,0.4)"><g transform="" style="fill: rgb(2, 73, 127);">
<rect width="100" height="100"/>
</g></g><g transform="translate(760,880) scale(0.4,0.4)"><g transform="" style="fill: rgb(2, 73, 127);">
<rect width="100" height="100"/>
</g></g><g transform="translate(800,880) scale(0.4,0.4)"><g transform="" style="fill: rgb(2, 73, 127);">
<rect width="100" height="100"/>
</g></g><g transform="translate(880,880) scale(0.4,0.4)"><g transform="" style="fill: rgb(2, 73, 127);">
<rect width="100" height="100"/>
</g></g><g transform="translate(960,880) scale(0.4,0.4)"><g transform="" style="fill: rgb(2, 73, 127);">
<rect width="100" height="100"/>
</g></g><g transform="translate(1000,880) scale(0.4,0.4)"><g transform="" style="fill: rgb(2, 73, 127);">
<rect width="100" height="100"/>
</g></g><g transform="translate(1080,880) scale(0.4,0.4)"><g transform="" style="fill: rgb(2, 73, 127);">
<rect width="100" height="100"/>
</g></g><g transform="translate(320,920) scale(0.4,0.4)"><g transform="" style="fill: rgb(2, 73, 127);">
<rect width="100" height="100"/>
</g></g><g transform="translate(360,920) scale(0.4,0.4)"><g transform="" style="fill: rgb(2, 73, 127);">
<rect width="100" height="100"/>
</g></g><g transform="translate(640,920) scale(0.4,0.4)"><g transform="" style="fill: rgb(2, 73, 127);">
<rect width="100" height="100"/>
</g></g><g transform="translate(720,920) scale(0.4,0.4)"><g transform="" style="fill: rgb(2, 73, 127);">
<rect width="100" height="100"/>
</g></g><g transform="translate(800,920) scale(0.4,0.4)"><g transform="" style="fill: rgb(2, 73, 127);">
<rect width="100" height="100"/>
</g></g><g transform="translate(960,920) scale(0.4,0.4)"><g transform="" style="fill: rgb(2, 73, 127);">
<rect width="100" height="100"/>
</g></g><g transform="translate(1000,920) scale(0.4,0.4)"><g transform="" style="fill: rgb(2, 73, 127);">
<rect width="100" height="100"/>
</g></g><g transform="translate(1080,920) scale(0.4,0.4)"><g transform="" style="fill: rgb(2, 73, 127);">
<rect width="100" height="100"/>
</g></g><g transform="translate(1120,920) scale(0.4,0.4)"><g transform="" style="fill: rgb(2, 73, 127);">
<rect width="100" height="100"/>
</g></g><g transform="translate(480,960) scale(0.4,0.4)"><g transform="" style="fill: rgb(2, 73, 127);">
<rect width="100" height="100"/>
</g></g><g transform="translate(560,960) scale(0.4,0.4)"><g transform="" style="fill: rgb(2, 73, 127);">
<rect width="100" height="100"/>
</g></g><g transform="translate(680,960) scale(0.4,0.4)"><g transform="" style="fill: rgb(2, 73, 127);">
<rect width="100" height="100"/>
</g></g><g transform="translate(800,960) scale(0.4,0.4)"><g transform="" style="fill: rgb(2, 73, 127);">
<rect width="100" height="100"/>
</g></g><g transform="translate(840,960) scale(0.4,0.4)"><g transform="" style="fill: rgb(2, 73, 127);">
<rect width="100" height="100"/>
</g></g><g transform="translate(880,960) scale(0.4,0.4)"><g transform="" style="fill: rgb(2, 73, 127);">
<rect width="100" height="100"/>
</g></g><g transform="translate(920,960) scale(0.4,0.4)"><g transform="" style="fill: rgb(2, 73, 127);">
<rect width="100" height="100"/>
</g></g><g transform="translate(960,960) scale(0.4,0.4)"><g transform="" style="fill: rgb(2, 73, 127);">
<rect width="100" height="100"/>
</g></g><g transform="translate(1040,960) scale(0.4,0.4)"><g transform="" style="fill: rgb(2, 73, 127);">
<rect width="100" height="100"/>
</g></g><g transform="translate(1080,960) scale(0.4,0.4)"><g transform="" style="fill: rgb(2, 73, 127);">
<rect width="100" height="100"/>
</g></g><g transform="translate(320,1000) scale(0.4,0.4)"><g transform="" style="fill: rgb(2, 73, 127);">
<rect width="100" height="100"/>
</g></g><g transform="translate(400,1000) scale(0.4,0.4)"><g transform="" style="fill: rgb(2, 73, 127);">
<rect width="100" height="100"/>
</g></g><g transform="translate(480,1000) scale(0.4,0.4)"><g transform="" style="fill: rgb(2, 73, 127);">
<rect width="100" height="100"/>
</g></g><g transform="translate(560,1000) scale(0.4,0.4)"><g transform="" style="fill: rgb(2, 73, 127);">
<rect width="100" height="100"/>
</g></g><g transform="translate(600,1000) scale(0.4,0.4)"><g transform="" style="fill: rgb(2, 73, 127);">
<rect width="100" height="100"/>
</g></g><g transform="translate(640,1000) scale(0.4,0.4)"><g transform="" style="fill: rgb(2, 73, 127);">
<rect width="100" height="100"/>
</g></g><g transform="translate(680,1000) scale(0.4,0.4)"><g transform="" style="fill: rgb(2, 73, 127);">
<rect width="100" height="100"/>
</g></g><g transform="translate(760,1000) scale(0.4,0.4)"><g transform="" style="fill: rgb(2, 73, 127);">
<rect width="100" height="100"/>
</g></g><g transform="translate(800,1000) scale(0.4,0.4)"><g transform="" style="fill: rgb(2, 73, 127);">
<rect width="100" height="100"/>
</g></g><g transform="translate(840,1000) scale(0.4,0.4)"><g transform="" style="fill: rgb(2, 73, 127);">
<rect width="100" height="100"/>
</g></g><g transform="translate(960,1000) scale(0.4,0.4)"><g transform="" style="fill: rgb(2, 73, 127);">
<rect width="100" height="100"/>
</g></g><g transform="translate(1000,1000) scale(0.4,0.4)"><g transform="" style="fill: rgb(2, 73, 127);">
<rect width="100" height="100"/>
</g></g><g transform="translate(1120,1000) scale(0.4,0.4)"><g transform="" style="fill: rgb(2, 73, 127);">
<rect width="100" height="100"/>
</g></g><g transform="translate(320,1040) scale(0.4,0.4)"><g transform="" style="fill: rgb(2, 73, 127);">
<rect width="100" height="100"/>
</g></g><g transform="translate(360,1040) scale(0.4,0.4)"><g transform="" style="fill: rgb(2, 73, 127);">
<rect width="100" height="100"/>
</g></g><g transform="translate(400,1040) scale(0.4,0.4)"><g transform="" style="fill: rgb(2, 73, 127);">
<rect width="100" height="100"/>
</g></g><g transform="translate(440,1040) scale(0.4,0.4)"><g transform="" style="fill: rgb(2, 73, 127);">
<rect width="100" height="100"/>
</g></g><g transform="translate(560,1040) scale(0.4,0.4)"><g transform="" style="fill: rgb(2, 73, 127);">
<rect width="100" height="100"/>
</g></g><g transform="translate(640,1040) scale(0.4,0.4)"><g transform="" style="fill: rgb(2, 73, 127);">
<rect width="100" height="100"/>
</g></g><g transform="translate(680,1040) scale(0.4,0.4)"><g transform="" style="fill: rgb(2, 73, 127);">
<rect width="100" height="100"/>
</g></g><g transform="translate(760,1040) scale(0.4,0.4)"><g transform="" style="fill: rgb(2, 73, 127);">
<rect width="100" height="100"/>
</g></g><g transform="translate(800,1040) scale(0.4,0.4)"><g transform="" style="fill: rgb(2, 73, 127);">
<rect width="100" height="100"/>
</g></g><g transform="translate(840,1040) scale(0.4,0.4)"><g transform="" style="fill: rgb(2, 73, 127);">
<rect width="100" height="100"/>
</g></g><g transform="translate(920,1040) scale(0.4,0.4)"><g transform="" style="fill: rgb(2, 73, 127);">
<rect width="100" height="100"/>
</g></g><g transform="translate(1040,1040) scale(0.4,0.4)"><g transform="" style="fill: rgb(2, 73, 127);">
<rect width="100" height="100"/>
</g></g><g transform="translate(1120,1040) scale(0.4,0.4)"><g transform="" style="fill: rgb(2, 73, 127);">
<rect width="100" height="100"/>
</g></g><g transform="translate(360,1080) scale(0.4,0.4)"><g transform="" style="fill: rgb(2, 73, 127);">
<rect width="100" height="100"/>
</g></g><g transform="translate(440,1080) scale(0.4,0.4)"><g transform="" style="fill: rgb(2, 73, 127);">
<rect width="100" height="100"/>
</g></g><g transform="translate(480,1080) scale(0.4,0.4)"><g transform="" style="fill: rgb(2, 73, 127);">
<rect width="100" height="100"/>
</g></g><g transform="translate(520,1080) scale(0.4,0.4)"><g transform="" style="fill: rgb(2, 73, 127);">
<rect width="100" height="100"/>
</g></g><g transform="translate(640,1080) scale(0.4,0.4)"><g transform="" style="fill: rgb(2, 73, 127);">
<rect width="100" height="100"/>
</g></g><g transform="translate(720,1080) scale(0.4,0.4)"><g transform="" style="fill: rgb(2, 73, 127);">
<rect width="100" height="100"/>
</g></g><g transform="translate(800,1080) scale(0.4,0.4)"><g transform="" style="fill: rgb(2, 73, 127);">
<rect width="100" height="100"/>
</g></g><g transform="translate(1000,1080) scale(0.4,0.4)"><g transform="" style="fill: rgb(2, 73, 127);">
<rect width="100" height="100"/>
</g></g><g transform="translate(1080,1080) scale(0.4,0.4)"><g transform="" style="fill: rgb(2, 73, 127);">
<rect width="100" height="100"/>
</g></g><g transform="translate(320,1120) scale(0.4,0.4)"><g transform="" style="fill: rgb(2, 73, 127);">
<rect width="100" height="100"/>
</g></g><g transform="translate(360,1120) scale(0.4,0.4)"><g transform="" style="fill: rgb(2, 73, 127);">
<rect width="100" height="100"/>
</g></g><g transform="translate(400,1120) scale(0.4,0.4)"><g transform="" style="fill: rgb(2, 73, 127);">
<rect width="100" height="100"/>
</g></g><g transform="translate(480,1120) scale(0.4,0.4)"><g transform="" style="fill: rgb(2, 73, 127);">
<rect width="100" height="100"/>
</g></g><g transform="translate(600,1120) scale(0.4,0.4)"><g transform="" style="fill: rgb(2, 73, 127);">
<rect width="100" height="100"/>
</g></g><g transform="translate(760,1120) scale(0.4,0.4)"><g transform="" style="fill: rgb(2, 73, 127);">
<rect width="100" height="100"/>
</g></g><g transform="translate(800,1120) scale(0.4,0.4)"><g transform="" style="fill: rgb(2, 73, 127);">
<rect width="100" height="100"/>
</g></g><g transform="translate(840,1120) scale(0.4,0.4)"><g transform="" style="fill: rgb(2, 73, 127);">
<rect width="100" height="100"/>
</g></g><g transform="translate(920,1120) scale(0.4,0.4)"><g transform="" style="fill: rgb(2, 73, 127);">
<rect width="100" height="100"/>
</g></g><g transform="translate(960,1120) scale(0.4,0.4)"><g transform="" style="fill: rgb(2, 73, 127);">
<rect width="100" height="100"/>
</g></g><g transform="translate(1080,1120) scale(0.4,0.4)"><g transform="" style="fill: rgb(2, 73, 127);">
<rect width="100" height="100"/>
</g></g><g transform="translate(0,0) scale(2.8, 2.8)"><g transform="" style="fill: rgb(2, 73, 127);">
<g>
	<rect x="15" y="15" style="fill:none;" width="70" height="70"/>
	<path d="M85,0H15H0v15v70v15h15h70h15V85V15V0H85z M85,85H15V15h70V85z"/>
</g>
</g></g><g transform="translate(880,0) scale(2.8, 2.8)"><g transform="" style="fill: rgb(2, 73, 127);">
<g>
	<rect x="15" y="15" style="fill:none;" width="70" height="70"/>
	<path d="M85,0H15H0v15v70v15h15h70h15V85V15V0H85z M85,85H15V15h70V85z"/>
</g>
</g></g><g transform="translate(0,880) scale(2.8, 2.8)"><g transform="" style="fill: rgb(2, 73, 127);">
<g>
	<rect x="15" y="15" style="fill:none;" width="70" height="70"/>
	<path d="M85,0H15H0v15v70v15h15h70h15V85V15V0H85z M85,85H15V15h70V85z"/>
</g>
</g></g><g transform="translate(80,80) scale(1.2, 1.2)"><g transform="" style="fill: rgb(2, 73, 127);">
<rect width="100" height="100"/>
</g></g><g transform="translate(960,80) scale(1.2, 1.2)"><g transform="" style="fill: rgb(2, 73, 127);">
<rect width="100" height="100"/>
</g></g><g transform="translate(80,960) scale(1.2, 1.2)"><g transform="" style="fill: rgb(2, 73, 127);">
<rect width="100" height="100"/>
</g></g></g></svg>